<svg width="40" height="40" viewBox="0 0 40 40" fill="none" xmlns="http://www.w3.org/2000/svg">
<g clip-path="url(#clip0)">
<path d="M18.9489 20.5941L28.9355 37.892C26.2507 39.23 23.2352 39.9999 20.0322 39.9999C8.96976 39.9999 0.000427247 31.0308 0.000427247 19.9683C0.000344677 9.32906 8.30202 0.650644 18.7801 0V19.9683C18.7799 20.1834 18.8362 20.3984 18.9489 20.5941ZM40.0002 18.7163H21.2842V0C31.3439 0.623479 39.3767 8.65646 40.0002 18.7163ZM23.7882 16.2124H37.1292C35.6746 9.56356 30.4372 4.32579 23.7882 2.87068V16.2124ZM31.1093 36.6524C36.1786 33.2805 39.6018 27.6612 40.0003 21.2201H22.2013L31.1093 36.6524Z" fill="white"/>
</g>
<defs>
<clipPath id="clip0">
<rect width="40" height="40" fill="white"/>
</clipPath>
</defs>
</svg>
