<svg width="231" height="186" viewBox="0 0 231 186" fill="none" xmlns="http://www.w3.org/2000/svg">
<path d="M159.111 32.8926L212.466 2.85012L197.041 55.8344L196.858 56.4648L197.363 56.8838L203.447 61.9257L201.51 79.3569L192.576 129.484L169.595 150.021L87.4455 154.501L87.3069 154.509L87.1757 154.554L2.91845 183.444L18.0142 161.463L18.1422 161.277L18.1775 161.053L30.6228 82.5217L70.743 72.47L71.0367 72.3964L71.2403 72.1723L106.795 33.0212H158.621H158.883L159.111 32.8926Z" fill="black" stroke="url(#paint0_linear)" stroke-width="2"/>
<path d="M81.714 73.2001L81.7605 73.1527L81.8004 73.0995L108.931 36.8783L148.421 43.9227L148.74 43.9795L149.031 43.8388L199.333 19.5661L190.72 51.6131L172.918 58.9539L171.852 59.3933L172.438 60.3864L187.762 86.3689L165.264 110.823L165.052 111.054L165.009 111.365L161.639 136.021L148.294 142.858L77.9371 152.246L77.8448 152.259L77.7563 152.288L15.5196 172.805L34.3837 153.945L34.917 153.411L34.5509 152.752L19.1236 124.964L34.3097 92.8764H62H62.42L62.714 92.5765L81.714 73.2001Z" stroke="url(#paint1_linear)" stroke-width="2"/>
<path d="M48.4439 116.873L35.8436 69.3961L45.1148 68.0514L45.2683 68.0292L45.4079 67.9614L68.1629 56.9181L90.2408 71.6579L90.8197 72.0444L91.3831 71.6358L112.147 56.5779L112.281 56.4809L112.377 56.3459L130.852 30.2336L156.112 40.879L156.524 41.0528L156.928 40.8612L199.307 20.7776L182.134 50.4997L181.956 50.8083L182.013 51.1601L185.013 69.6601L185.218 70.9232L186.394 70.4191L199.079 64.9825L200.501 91.0545L200.502 91.0725L200.504 91.0905L202.946 117.951L162.933 140.886L120.89 123.079L120.616 122.963L120.323 123.016L68.0644 132.429L67.6978 132.495L67.4637 132.785L31.3065 177.553L48.4391 117.403L48.5144 117.139L48.4439 116.873Z" stroke="url(#paint2_linear)" stroke-width="2"/>
<path d="M63.4276 119.928L67.0482 121.157L64.4932 118.312L34.6303 85.0642L47.7026 68.7864L47.9229 68.512V68.1602V33.8813L81.0979 55.8187L81.2842 55.9419L81.5053 55.9741L117.664 61.2443L118.125 61.3116L118.473 61.0014L139.131 42.5934L159.623 50.9263L160.147 51.1391L160.599 50.8008L183.371 33.7695L192.52 79.1974L192.604 79.6144L192.962 79.8432L223.974 99.6181L196.252 130.836L196.171 130.928L196.114 131.036L185.323 151.637L154.002 159.359L73.3009 139.092L72.8886 138.988L72.528 139.213L40.8366 158.988L8.26586 101.194L63.4276 119.928Z" stroke="url(#paint3_linear)" stroke-width="2"/>
<mask id="path-5-outside-1" maskUnits="userSpaceOnUse" x="71.056" y="70.672" width="160" height="54" fill="black">
<rect fill="white" x="71.056" y="70.672" width="160" height="54"/>
<path d="M74.576 73.94H76.032L85.692 88.276C87.2787 85.8493 88.8747 83.4507 90.48 81.08C92.104 78.7093 93.7374 76.3293 95.38 73.94H96.836V90.46H95.1V77.468L86.392 90.46H85.02L76.312 77.496V90.46H74.576V73.94ZM77.852 82.592L84.152 92.028H87.232L93.56 82.564V92.028H98.376V72.372H94.512L85.664 85.476L76.872 72.372H73.036V92.028H77.852V82.592ZM79.98 74.556L86.056 83.656L94.176 71.672H99.076L101.792 74.556V95.444H95.744L92.86 92.728V91.692L90.34 95.444H86.644L83.816 92.728L81.268 88.92V95.444H75.22L72.336 92.728V71.672H77.208L79.98 74.556Z"/>
<path d="M126.376 84.384L120.468 76.012L114.42 84.384H126.376ZM123.352 82.872H117.416L120.412 78.672L123.352 82.872ZM130.548 90.46L127.524 86.12H113.216C112.693 86.8293 112.18 87.5573 111.676 88.304C111.19 89.032 110.686 89.7507 110.164 90.46H107.924C109.902 87.6787 111.872 84.9253 113.832 82.2C115.81 79.4747 117.78 76.7213 119.74 73.94H121.084L132.648 90.46H130.548ZM118.984 72.372L104.984 92.028H110.92L114 87.688H126.656L129.708 92.028H135.644L121.924 72.372H118.984ZM125.06 74.556L139.62 95.444H132.172L129.344 92.728L128.196 91.104H117.136C116.912 91.44 116.66 91.7947 116.38 92.168C116.118 92.5413 115.848 92.9147 115.568 93.288C115.306 93.68 115.045 94.0533 114.784 94.408C114.522 94.7813 114.28 95.1267 114.056 95.444H106.58L103.612 92.728L118.62 71.672H122.288L125.06 74.556Z"/>
<path d="M166.266 90.46H163.746L155.346 83.068L147.086 90.46H144.622L154.254 82.144C152.63 80.7627 151.016 79.3907 149.41 78.028C147.824 76.6653 146.209 75.3027 144.566 73.94H147.086L155.374 81.248C156.718 80.016 158.072 78.8027 159.434 77.608C160.797 76.3947 162.16 75.172 163.522 73.94H166.014L156.466 82.144L166.266 90.46ZM162.962 72.372C161.712 73.5293 160.452 74.668 159.182 75.788C157.913 76.8893 156.644 78.0187 155.374 79.176L147.674 72.372H140.366L151.874 82.116L140.366 92.028H147.674L155.346 85.14L163.158 92.028H170.522L158.874 82.172L170.242 72.372H162.962ZM174.694 74.556L162.934 84.72L172.426 92.728L175.002 95.444H165.706L158.146 88.78C156.914 89.9 155.673 91.0107 154.422 92.112C153.172 93.232 151.93 94.3427 150.698 95.444H141.514L138.49 92.728L150.614 82.284L138.322 71.672H147.926L155.346 78.224L162.71 71.672H172.118L174.694 74.556Z"/>
<path d="M87.988 105.216C88.212 105.216 88.436 105.235 88.66 105.272C88.9027 105.309 89.1174 105.375 89.304 105.468C89.5094 105.561 89.6774 105.692 89.808 105.86C89.9387 106.028 90.004 106.252 90.004 106.532C90.004 106.793 89.9294 107.008 89.78 107.176C89.6494 107.344 89.4814 107.475 89.276 107.568C89.0707 107.661 88.8467 107.727 88.604 107.764C88.3614 107.801 88.1467 107.82 87.96 107.82H77.6V105.216H87.988ZM87.96 109.36C88.408 109.36 88.8467 109.313 89.276 109.22C89.724 109.108 90.116 108.94 90.452 108.716C90.788 108.492 91.0587 108.203 91.264 107.848C91.4694 107.475 91.572 107.036 91.572 106.532C91.572 106.009 91.4694 105.571 91.264 105.216C91.0774 104.843 90.816 104.544 90.48 104.32C90.1627 104.077 89.78 103.909 89.332 103.816C88.9027 103.704 88.4547 103.648 87.988 103.648H76.032V109.36H87.96ZM76.032 118.46H74.324V101.94H87.988C88.7534 101.94 89.4627 102.033 90.116 102.22C90.7694 102.388 91.3294 102.659 91.796 103.032C92.2814 103.387 92.6547 103.863 92.916 104.46C93.196 105.039 93.336 105.729 93.336 106.532C93.336 107.559 93.0934 108.408 92.608 109.08C92.1414 109.733 91.4414 110.247 90.508 110.62V110.648C90.0787 110.797 89.4814 110.909 88.716 110.984C87.9507 111.059 87.092 111.115 86.14 111.152C85.2067 111.171 84.2267 111.18 83.2 111.18C82.1734 111.18 81.1934 111.171 80.26 111.152C79.3267 111.115 78.4867 111.087 77.74 111.068C76.9934 111.049 76.424 111.04 76.032 111.04V118.46ZM94.904 106.532C94.904 105.468 94.736 104.553 94.4 103.788C94.064 103.004 93.588 102.36 92.972 101.856C92.3747 101.352 91.6467 100.979 90.788 100.736C89.948 100.493 89.0147 100.372 87.988 100.372H72.756V120.028H77.6V112.58C78.048 112.58 78.6267 112.589 79.336 112.608C80.064 112.627 80.848 112.655 81.688 112.692C82.528 112.711 83.4054 112.72 84.32 112.72C85.2347 112.72 86.112 112.701 86.952 112.664C87.8107 112.627 88.604 112.561 89.332 112.468C90.06 112.375 90.6667 112.244 91.152 112.076V112.048C92.384 111.525 93.3174 110.816 93.952 109.92C94.5867 109.024 94.904 107.895 94.904 106.532ZM72.056 120.728V99.672H87.988C88.716 99.672 89.4254 99.728 90.116 99.84C90.8254 99.9333 91.5347 100.148 92.244 100.484C92.972 100.801 93.7187 101.259 94.484 101.856C95.2494 102.453 96.052 103.247 96.892 104.236C97.4334 104.777 97.8067 105.496 98.012 106.392C98.2174 107.288 98.32 108.268 98.32 109.332C98.32 110.844 97.9654 112.095 97.256 113.084C96.5654 114.073 95.5387 114.867 94.176 115.464C93.8027 115.595 93.3547 115.707 92.832 115.8C92.328 115.875 91.768 115.94 91.152 115.996C90.536 116.052 89.8827 116.089 89.192 116.108C88.52 116.127 87.8387 116.136 87.148 116.136C86.14 116.136 85.1414 116.136 84.152 116.136C83.1627 116.136 82.1174 116.127 81.016 116.108V123.444H74.94L72.056 120.728Z"/>
<path d="M114.687 116.752C115.77 116.752 116.778 116.64 117.711 116.416C118.663 116.173 119.484 115.8 120.175 115.296C120.884 114.773 121.435 114.101 121.827 113.28C122.219 112.44 122.415 111.413 122.415 110.2C122.415 109.005 122.21 107.988 121.799 107.148C121.407 106.308 120.866 105.636 120.175 105.132C119.484 104.609 118.663 104.236 117.711 104.012C116.778 103.769 115.77 103.648 114.687 103.648H111.607C110.506 103.648 109.479 103.769 108.527 104.012C107.594 104.236 106.782 104.609 106.091 105.132C105.4 105.636 104.85 106.308 104.439 107.148C104.047 107.988 103.851 109.005 103.851 110.2C103.851 111.413 104.047 112.44 104.439 113.28C104.85 114.101 105.4 114.773 106.091 115.296C106.782 115.819 107.594 116.192 108.527 116.416C109.479 116.64 110.506 116.752 111.607 116.752H114.687ZM111.607 115.184C110.767 115.184 109.974 115.1 109.227 114.932C108.48 114.764 107.827 114.493 107.267 114.12C106.707 113.728 106.259 113.215 105.923 112.58C105.587 111.945 105.419 111.152 105.419 110.2C105.419 109.267 105.587 108.483 105.923 107.848C106.259 107.213 106.707 106.7 107.267 106.308C107.846 105.916 108.508 105.636 109.255 105.468C110.002 105.3 110.786 105.216 111.607 105.216H114.687C115.508 105.216 116.292 105.3 117.039 105.468C117.786 105.636 118.439 105.916 118.999 106.308C119.559 106.7 120.007 107.213 120.343 107.848C120.679 108.483 120.847 109.267 120.847 110.2C120.847 111.133 120.679 111.917 120.343 112.552C120.026 113.187 119.587 113.7 119.027 114.092C118.467 114.484 117.814 114.764 117.067 114.932C116.32 115.1 115.527 115.184 114.687 115.184H111.607ZM102.087 110.2C102.087 108.688 102.32 107.409 102.787 106.364C103.272 105.319 103.935 104.469 104.775 103.816C105.634 103.144 106.642 102.668 107.799 102.388C108.975 102.089 110.244 101.94 111.607 101.94H114.687C116.05 101.94 117.31 102.089 118.467 102.388C119.624 102.687 120.623 103.163 121.463 103.816C122.322 104.469 122.984 105.319 123.451 106.364C123.936 107.409 124.179 108.688 124.179 110.2C124.179 111.712 123.936 112.991 123.451 114.036C122.984 115.081 122.322 115.931 121.463 116.584C120.623 117.237 119.624 117.713 118.467 118.012C117.31 118.311 116.05 118.46 114.687 118.46H111.607C110.244 118.46 108.975 118.32 107.799 118.04C106.642 117.741 105.634 117.265 104.775 116.612C103.935 115.94 103.272 115.081 102.787 114.036C102.32 112.991 102.087 111.712 102.087 110.2ZM100.519 110.2C100.519 111.973 100.79 113.485 101.331 114.736C101.891 115.968 102.656 116.976 103.627 117.76C104.616 118.544 105.783 119.123 107.127 119.496C108.49 119.851 109.983 120.028 111.607 120.028H114.687C116.311 120.028 117.795 119.851 119.139 119.496C120.483 119.123 121.64 118.544 122.611 117.76C123.6 116.976 124.366 115.968 124.907 114.736C125.448 113.485 125.719 111.973 125.719 110.2C125.719 108.427 125.448 106.924 124.907 105.692C124.366 104.441 123.6 103.424 122.611 102.64C121.64 101.856 120.483 101.287 119.139 100.932C117.795 100.559 116.311 100.372 114.687 100.372H111.607C109.983 100.372 108.49 100.559 107.127 100.932C105.783 101.287 104.616 101.856 103.627 102.64C102.656 103.424 101.891 104.441 101.331 105.692C100.79 106.924 100.519 108.427 100.519 110.2ZM99.8191 110.2C99.8191 108.296 100.108 106.681 100.687 105.356C101.266 104.012 102.078 102.92 103.123 102.08C104.168 101.24 105.41 100.633 106.847 100.26C108.303 99.868 109.89 99.672 111.607 99.672H114.687C115.77 99.672 116.787 99.7373 117.739 99.868C118.71 99.98 119.662 100.232 120.595 100.624C121.528 100.997 122.452 101.539 123.367 102.248C124.3 102.939 125.262 103.872 126.251 105.048C127.091 105.888 127.782 106.999 128.323 108.38C128.864 109.761 129.135 111.301 129.135 113C129.135 114.885 128.846 116.491 128.267 117.816C127.707 119.141 126.904 120.215 125.859 121.036C124.832 121.876 123.6 122.483 122.163 122.856C120.744 123.248 119.186 123.444 117.487 123.444H114.407C112.503 123.444 110.73 123.229 109.087 122.8C107.444 122.371 106.091 121.633 105.027 120.588C103.963 119.655 103.095 118.777 102.423 117.956C101.751 117.116 101.219 116.285 100.827 115.464C100.454 114.643 100.192 113.803 100.043 112.944C99.8938 112.085 99.8191 111.171 99.8191 110.2ZM114.687 114.484C115.415 114.484 116.106 114.419 116.759 114.288C117.431 114.139 118.019 113.896 118.523 113.56C119.027 113.224 119.419 112.785 119.699 112.244C119.998 111.684 120.147 111.003 120.147 110.2C120.147 109.752 120.091 109.341 119.979 108.968C119.214 108.744 118.383 108.632 117.487 108.632H114.407C113.66 108.632 112.951 108.707 112.279 108.856C111.607 109.005 111.01 109.248 110.487 109.584C109.983 109.92 109.582 110.368 109.283 110.928C108.984 111.488 108.835 112.179 108.835 113C108.835 113.448 108.872 113.821 108.947 114.12C109.339 114.251 109.759 114.344 110.207 114.4C110.655 114.456 111.122 114.484 111.607 114.484H114.687Z"/>
<path d="M138.281 115.604C139.215 113.289 140.176 111.012 141.165 108.772C142.155 106.513 143.125 104.236 144.077 101.94H145.449L151.245 115.576C152.197 113.299 153.149 111.031 154.101 108.772C155.053 106.513 155.996 104.236 156.929 101.94H158.889C157.751 104.721 156.612 107.475 155.473 110.2C154.335 112.925 153.196 115.679 152.057 118.46H150.629L144.777 104.796L138.869 118.46H137.497C136.377 115.679 135.248 112.925 134.109 110.2C132.971 107.456 131.823 104.703 130.665 101.94H132.625L138.281 115.604ZM136.489 120.028H139.961C140.745 118.124 141.529 116.248 142.313 114.4C143.116 112.533 143.928 110.657 144.749 108.772L149.565 120.028H153.065L161.185 100.372H155.893C155.128 102.239 154.353 104.096 153.569 105.944C152.804 107.773 152.029 109.621 151.245 111.488L146.485 100.372H143.069L138.281 111.544L133.633 100.372H128.369L136.489 120.028ZM134.081 99.672L136.825 102.556L139.037 107.932C139.635 106.551 140.232 105.179 140.829 103.816C141.427 102.453 142.024 101.072 142.621 99.672H146.961L149.705 102.556L151.973 107.932L152.309 107.148C152.421 106.887 152.543 106.607 152.673 106.308C152.823 105.991 152.944 105.701 153.037 105.44C153.448 104.488 153.859 103.517 154.269 102.528C154.68 101.52 155.072 100.568 155.445 99.672H162.221L164.881 102.556L156.257 123.444H151.945L149.089 120.728L146.681 115.128C146.084 116.528 145.487 117.928 144.889 119.328C144.292 120.709 143.713 122.081 143.153 123.444H138.897L136.041 120.728L127.333 99.672H134.081Z"/>
<path d="M171.462 109.36H185.714V111.04H171.462V116.752H188.626V118.46H169.726V101.94H188.598V103.648H171.462V109.36ZM173.002 105.216H190.166V100.372H168.158V120.028H190.194V115.184H173.002V112.58H187.254V107.82H173.002V105.216ZM167.458 120.728V99.672H190.866L193.582 102.556V108.632H189.298L190.67 110.004V114.484L193.61 117.368V123.444H170.342L167.458 120.728Z"/>
<path d="M213.583 105.216C213.807 105.216 214.04 105.235 214.283 105.272C214.526 105.309 214.75 105.375 214.955 105.468C215.16 105.561 215.328 105.692 215.459 105.86C215.608 106.028 215.683 106.252 215.683 106.532C215.683 106.793 215.608 107.008 215.459 107.176C215.31 107.344 215.123 107.475 214.899 107.568C214.694 107.661 214.46 107.727 214.199 107.764C213.956 107.801 213.742 107.82 213.555 107.82H203.195V105.216H213.583ZM213.555 109.36C214.003 109.36 214.442 109.313 214.871 109.22C215.319 109.108 215.72 108.94 216.075 108.716C216.43 108.492 216.71 108.203 216.915 107.848C217.139 107.475 217.251 107.036 217.251 106.532C217.251 106.009 217.148 105.561 216.943 105.188C216.738 104.815 216.458 104.516 216.103 104.292C215.767 104.068 215.375 103.909 214.927 103.816C214.498 103.704 214.05 103.648 213.583 103.648H201.655V109.36H213.555ZM216.103 110.62C215.842 110.769 215.552 110.881 215.235 110.956C214.918 111.031 214.619 111.105 214.339 111.18C215.384 112.412 216.43 113.625 217.475 114.82C218.539 116.015 219.603 117.228 220.667 118.46H218.399L211.931 111.04H201.655V118.46H199.919V101.94H213.583C214.348 101.94 215.058 102.024 215.711 102.192C216.383 102.36 216.952 102.631 217.419 103.004C217.904 103.377 218.278 103.853 218.539 104.432C218.819 105.011 218.959 105.711 218.959 106.532C218.959 107.559 218.726 108.408 218.259 109.08C217.792 109.733 217.083 110.247 216.131 110.62H216.103ZM220.527 106.532C220.527 105.468 220.359 104.553 220.023 103.788C219.687 103.004 219.211 102.36 218.595 101.856C217.979 101.352 217.242 100.979 216.383 100.736C215.543 100.493 214.61 100.372 213.583 100.372H198.407V120.028H203.195V112.58H211.203L217.643 120.028H224.083L217.027 111.936C219.36 110.909 220.527 109.108 220.527 106.532ZM197.707 120.728V99.672H213.583C214.311 99.672 215.011 99.728 215.683 99.84C216.355 99.9333 217.027 100.139 217.699 100.456C218.39 100.773 219.099 101.231 219.827 101.828C220.574 102.425 221.367 103.219 222.207 104.208C222.748 104.749 223.168 105.477 223.467 106.392C223.784 107.288 223.943 108.268 223.943 109.332C223.943 110.564 223.672 111.656 223.131 112.608C222.608 113.56 221.843 114.335 220.835 114.932C221.414 115.604 222.02 116.304 222.655 117.032C223.29 117.76 223.924 118.497 224.559 119.244C225.194 119.972 225.819 120.691 226.435 121.4C227.07 122.128 227.667 122.809 228.227 123.444H220.163L217.335 120.728L213.247 115.996H206.611V123.444H200.591L197.707 120.728Z"/>
</mask>
<path d="M74.576 73.94H76.032L85.692 88.276C87.2787 85.8493 88.8747 83.4507 90.48 81.08C92.104 78.7093 93.7374 76.3293 95.38 73.94H96.836V90.46H95.1V77.468L86.392 90.46H85.02L76.312 77.496V90.46H74.576V73.94ZM77.852 82.592L84.152 92.028H87.232L93.56 82.564V92.028H98.376V72.372H94.512L85.664 85.476L76.872 72.372H73.036V92.028H77.852V82.592ZM79.98 74.556L86.056 83.656L94.176 71.672H99.076L101.792 74.556V95.444H95.744L92.86 92.728V91.692L90.34 95.444H86.644L83.816 92.728L81.268 88.92V95.444H75.22L72.336 92.728V71.672H77.208L79.98 74.556Z" fill="black"/>
<path d="M126.376 84.384L120.468 76.012L114.42 84.384H126.376ZM123.352 82.872H117.416L120.412 78.672L123.352 82.872ZM130.548 90.46L127.524 86.12H113.216C112.693 86.8293 112.18 87.5573 111.676 88.304C111.19 89.032 110.686 89.7507 110.164 90.46H107.924C109.902 87.6787 111.872 84.9253 113.832 82.2C115.81 79.4747 117.78 76.7213 119.74 73.94H121.084L132.648 90.46H130.548ZM118.984 72.372L104.984 92.028H110.92L114 87.688H126.656L129.708 92.028H135.644L121.924 72.372H118.984ZM125.06 74.556L139.62 95.444H132.172L129.344 92.728L128.196 91.104H117.136C116.912 91.44 116.66 91.7947 116.38 92.168C116.118 92.5413 115.848 92.9147 115.568 93.288C115.306 93.68 115.045 94.0533 114.784 94.408C114.522 94.7813 114.28 95.1267 114.056 95.444H106.58L103.612 92.728L118.62 71.672H122.288L125.06 74.556Z" fill="black"/>
<path d="M166.266 90.46H163.746L155.346 83.068L147.086 90.46H144.622L154.254 82.144C152.63 80.7627 151.016 79.3907 149.41 78.028C147.824 76.6653 146.209 75.3027 144.566 73.94H147.086L155.374 81.248C156.718 80.016 158.072 78.8027 159.434 77.608C160.797 76.3947 162.16 75.172 163.522 73.94H166.014L156.466 82.144L166.266 90.46ZM162.962 72.372C161.712 73.5293 160.452 74.668 159.182 75.788C157.913 76.8893 156.644 78.0187 155.374 79.176L147.674 72.372H140.366L151.874 82.116L140.366 92.028H147.674L155.346 85.14L163.158 92.028H170.522L158.874 82.172L170.242 72.372H162.962ZM174.694 74.556L162.934 84.72L172.426 92.728L175.002 95.444H165.706L158.146 88.78C156.914 89.9 155.673 91.0107 154.422 92.112C153.172 93.232 151.93 94.3427 150.698 95.444H141.514L138.49 92.728L150.614 82.284L138.322 71.672H147.926L155.346 78.224L162.71 71.672H172.118L174.694 74.556Z" fill="black"/>
<path d="M87.988 105.216C88.212 105.216 88.436 105.235 88.66 105.272C88.9027 105.309 89.1174 105.375 89.304 105.468C89.5094 105.561 89.6774 105.692 89.808 105.86C89.9387 106.028 90.004 106.252 90.004 106.532C90.004 106.793 89.9294 107.008 89.78 107.176C89.6494 107.344 89.4814 107.475 89.276 107.568C89.0707 107.661 88.8467 107.727 88.604 107.764C88.3614 107.801 88.1467 107.82 87.96 107.82H77.6V105.216H87.988ZM87.96 109.36C88.408 109.36 88.8467 109.313 89.276 109.22C89.724 109.108 90.116 108.94 90.452 108.716C90.788 108.492 91.0587 108.203 91.264 107.848C91.4694 107.475 91.572 107.036 91.572 106.532C91.572 106.009 91.4694 105.571 91.264 105.216C91.0774 104.843 90.816 104.544 90.48 104.32C90.1627 104.077 89.78 103.909 89.332 103.816C88.9027 103.704 88.4547 103.648 87.988 103.648H76.032V109.36H87.96ZM76.032 118.46H74.324V101.94H87.988C88.7534 101.94 89.4627 102.033 90.116 102.22C90.7694 102.388 91.3294 102.659 91.796 103.032C92.2814 103.387 92.6547 103.863 92.916 104.46C93.196 105.039 93.336 105.729 93.336 106.532C93.336 107.559 93.0934 108.408 92.608 109.08C92.1414 109.733 91.4414 110.247 90.508 110.62V110.648C90.0787 110.797 89.4814 110.909 88.716 110.984C87.9507 111.059 87.092 111.115 86.14 111.152C85.2067 111.171 84.2267 111.18 83.2 111.18C82.1734 111.18 81.1934 111.171 80.26 111.152C79.3267 111.115 78.4867 111.087 77.74 111.068C76.9934 111.049 76.424 111.04 76.032 111.04V118.46ZM94.904 106.532C94.904 105.468 94.736 104.553 94.4 103.788C94.064 103.004 93.588 102.36 92.972 101.856C92.3747 101.352 91.6467 100.979 90.788 100.736C89.948 100.493 89.0147 100.372 87.988 100.372H72.756V120.028H77.6V112.58C78.048 112.58 78.6267 112.589 79.336 112.608C80.064 112.627 80.848 112.655 81.688 112.692C82.528 112.711 83.4054 112.72 84.32 112.72C85.2347 112.72 86.112 112.701 86.952 112.664C87.8107 112.627 88.604 112.561 89.332 112.468C90.06 112.375 90.6667 112.244 91.152 112.076V112.048C92.384 111.525 93.3174 110.816 93.952 109.92C94.5867 109.024 94.904 107.895 94.904 106.532ZM72.056 120.728V99.672H87.988C88.716 99.672 89.4254 99.728 90.116 99.84C90.8254 99.9333 91.5347 100.148 92.244 100.484C92.972 100.801 93.7187 101.259 94.484 101.856C95.2494 102.453 96.052 103.247 96.892 104.236C97.4334 104.777 97.8067 105.496 98.012 106.392C98.2174 107.288 98.32 108.268 98.32 109.332C98.32 110.844 97.9654 112.095 97.256 113.084C96.5654 114.073 95.5387 114.867 94.176 115.464C93.8027 115.595 93.3547 115.707 92.832 115.8C92.328 115.875 91.768 115.94 91.152 115.996C90.536 116.052 89.8827 116.089 89.192 116.108C88.52 116.127 87.8387 116.136 87.148 116.136C86.14 116.136 85.1414 116.136 84.152 116.136C83.1627 116.136 82.1174 116.127 81.016 116.108V123.444H74.94L72.056 120.728Z" fill="black"/>
<path d="M114.687 116.752C115.77 116.752 116.778 116.64 117.711 116.416C118.663 116.173 119.484 115.8 120.175 115.296C120.884 114.773 121.435 114.101 121.827 113.28C122.219 112.44 122.415 111.413 122.415 110.2C122.415 109.005 122.21 107.988 121.799 107.148C121.407 106.308 120.866 105.636 120.175 105.132C119.484 104.609 118.663 104.236 117.711 104.012C116.778 103.769 115.77 103.648 114.687 103.648H111.607C110.506 103.648 109.479 103.769 108.527 104.012C107.594 104.236 106.782 104.609 106.091 105.132C105.4 105.636 104.85 106.308 104.439 107.148C104.047 107.988 103.851 109.005 103.851 110.2C103.851 111.413 104.047 112.44 104.439 113.28C104.85 114.101 105.4 114.773 106.091 115.296C106.782 115.819 107.594 116.192 108.527 116.416C109.479 116.64 110.506 116.752 111.607 116.752H114.687ZM111.607 115.184C110.767 115.184 109.974 115.1 109.227 114.932C108.48 114.764 107.827 114.493 107.267 114.12C106.707 113.728 106.259 113.215 105.923 112.58C105.587 111.945 105.419 111.152 105.419 110.2C105.419 109.267 105.587 108.483 105.923 107.848C106.259 107.213 106.707 106.7 107.267 106.308C107.846 105.916 108.508 105.636 109.255 105.468C110.002 105.3 110.786 105.216 111.607 105.216H114.687C115.508 105.216 116.292 105.3 117.039 105.468C117.786 105.636 118.439 105.916 118.999 106.308C119.559 106.7 120.007 107.213 120.343 107.848C120.679 108.483 120.847 109.267 120.847 110.2C120.847 111.133 120.679 111.917 120.343 112.552C120.026 113.187 119.587 113.7 119.027 114.092C118.467 114.484 117.814 114.764 117.067 114.932C116.32 115.1 115.527 115.184 114.687 115.184H111.607ZM102.087 110.2C102.087 108.688 102.32 107.409 102.787 106.364C103.272 105.319 103.935 104.469 104.775 103.816C105.634 103.144 106.642 102.668 107.799 102.388C108.975 102.089 110.244 101.94 111.607 101.94H114.687C116.05 101.94 117.31 102.089 118.467 102.388C119.624 102.687 120.623 103.163 121.463 103.816C122.322 104.469 122.984 105.319 123.451 106.364C123.936 107.409 124.179 108.688 124.179 110.2C124.179 111.712 123.936 112.991 123.451 114.036C122.984 115.081 122.322 115.931 121.463 116.584C120.623 117.237 119.624 117.713 118.467 118.012C117.31 118.311 116.05 118.46 114.687 118.46H111.607C110.244 118.46 108.975 118.32 107.799 118.04C106.642 117.741 105.634 117.265 104.775 116.612C103.935 115.94 103.272 115.081 102.787 114.036C102.32 112.991 102.087 111.712 102.087 110.2ZM100.519 110.2C100.519 111.973 100.79 113.485 101.331 114.736C101.891 115.968 102.656 116.976 103.627 117.76C104.616 118.544 105.783 119.123 107.127 119.496C108.49 119.851 109.983 120.028 111.607 120.028H114.687C116.311 120.028 117.795 119.851 119.139 119.496C120.483 119.123 121.64 118.544 122.611 117.76C123.6 116.976 124.366 115.968 124.907 114.736C125.448 113.485 125.719 111.973 125.719 110.2C125.719 108.427 125.448 106.924 124.907 105.692C124.366 104.441 123.6 103.424 122.611 102.64C121.64 101.856 120.483 101.287 119.139 100.932C117.795 100.559 116.311 100.372 114.687 100.372H111.607C109.983 100.372 108.49 100.559 107.127 100.932C105.783 101.287 104.616 101.856 103.627 102.64C102.656 103.424 101.891 104.441 101.331 105.692C100.79 106.924 100.519 108.427 100.519 110.2ZM99.8191 110.2C99.8191 108.296 100.108 106.681 100.687 105.356C101.266 104.012 102.078 102.92 103.123 102.08C104.168 101.24 105.41 100.633 106.847 100.26C108.303 99.868 109.89 99.672 111.607 99.672H114.687C115.77 99.672 116.787 99.7373 117.739 99.868C118.71 99.98 119.662 100.232 120.595 100.624C121.528 100.997 122.452 101.539 123.367 102.248C124.3 102.939 125.262 103.872 126.251 105.048C127.091 105.888 127.782 106.999 128.323 108.38C128.864 109.761 129.135 111.301 129.135 113C129.135 114.885 128.846 116.491 128.267 117.816C127.707 119.141 126.904 120.215 125.859 121.036C124.832 121.876 123.6 122.483 122.163 122.856C120.744 123.248 119.186 123.444 117.487 123.444H114.407C112.503 123.444 110.73 123.229 109.087 122.8C107.444 122.371 106.091 121.633 105.027 120.588C103.963 119.655 103.095 118.777 102.423 117.956C101.751 117.116 101.219 116.285 100.827 115.464C100.454 114.643 100.192 113.803 100.043 112.944C99.8938 112.085 99.8191 111.171 99.8191 110.2ZM114.687 114.484C115.415 114.484 116.106 114.419 116.759 114.288C117.431 114.139 118.019 113.896 118.523 113.56C119.027 113.224 119.419 112.785 119.699 112.244C119.998 111.684 120.147 111.003 120.147 110.2C120.147 109.752 120.091 109.341 119.979 108.968C119.214 108.744 118.383 108.632 117.487 108.632H114.407C113.66 108.632 112.951 108.707 112.279 108.856C111.607 109.005 111.01 109.248 110.487 109.584C109.983 109.92 109.582 110.368 109.283 110.928C108.984 111.488 108.835 112.179 108.835 113C108.835 113.448 108.872 113.821 108.947 114.12C109.339 114.251 109.759 114.344 110.207 114.4C110.655 114.456 111.122 114.484 111.607 114.484H114.687Z" fill="black"/>
<path d="M138.281 115.604C139.215 113.289 140.176 111.012 141.165 108.772C142.155 106.513 143.125 104.236 144.077 101.94H145.449L151.245 115.576C152.197 113.299 153.149 111.031 154.101 108.772C155.053 106.513 155.996 104.236 156.929 101.94H158.889C157.751 104.721 156.612 107.475 155.473 110.2C154.335 112.925 153.196 115.679 152.057 118.46H150.629L144.777 104.796L138.869 118.46H137.497C136.377 115.679 135.248 112.925 134.109 110.2C132.971 107.456 131.823 104.703 130.665 101.94H132.625L138.281 115.604ZM136.489 120.028H139.961C140.745 118.124 141.529 116.248 142.313 114.4C143.116 112.533 143.928 110.657 144.749 108.772L149.565 120.028H153.065L161.185 100.372H155.893C155.128 102.239 154.353 104.096 153.569 105.944C152.804 107.773 152.029 109.621 151.245 111.488L146.485 100.372H143.069L138.281 111.544L133.633 100.372H128.369L136.489 120.028ZM134.081 99.672L136.825 102.556L139.037 107.932C139.635 106.551 140.232 105.179 140.829 103.816C141.427 102.453 142.024 101.072 142.621 99.672H146.961L149.705 102.556L151.973 107.932L152.309 107.148C152.421 106.887 152.543 106.607 152.673 106.308C152.823 105.991 152.944 105.701 153.037 105.44C153.448 104.488 153.859 103.517 154.269 102.528C154.68 101.52 155.072 100.568 155.445 99.672H162.221L164.881 102.556L156.257 123.444H151.945L149.089 120.728L146.681 115.128C146.084 116.528 145.487 117.928 144.889 119.328C144.292 120.709 143.713 122.081 143.153 123.444H138.897L136.041 120.728L127.333 99.672H134.081Z" fill="black"/>
<path d="M171.462 109.36H185.714V111.04H171.462V116.752H188.626V118.46H169.726V101.94H188.598V103.648H171.462V109.36ZM173.002 105.216H190.166V100.372H168.158V120.028H190.194V115.184H173.002V112.58H187.254V107.82H173.002V105.216ZM167.458 120.728V99.672H190.866L193.582 102.556V108.632H189.298L190.67 110.004V114.484L193.61 117.368V123.444H170.342L167.458 120.728Z" fill="black"/>
<path d="M213.583 105.216C213.807 105.216 214.04 105.235 214.283 105.272C214.526 105.309 214.75 105.375 214.955 105.468C215.16 105.561 215.328 105.692 215.459 105.86C215.608 106.028 215.683 106.252 215.683 106.532C215.683 106.793 215.608 107.008 215.459 107.176C215.31 107.344 215.123 107.475 214.899 107.568C214.694 107.661 214.46 107.727 214.199 107.764C213.956 107.801 213.742 107.82 213.555 107.82H203.195V105.216H213.583ZM213.555 109.36C214.003 109.36 214.442 109.313 214.871 109.22C215.319 109.108 215.72 108.94 216.075 108.716C216.43 108.492 216.71 108.203 216.915 107.848C217.139 107.475 217.251 107.036 217.251 106.532C217.251 106.009 217.148 105.561 216.943 105.188C216.738 104.815 216.458 104.516 216.103 104.292C215.767 104.068 215.375 103.909 214.927 103.816C214.498 103.704 214.05 103.648 213.583 103.648H201.655V109.36H213.555ZM216.103 110.62C215.842 110.769 215.552 110.881 215.235 110.956C214.918 111.031 214.619 111.105 214.339 111.18C215.384 112.412 216.43 113.625 217.475 114.82C218.539 116.015 219.603 117.228 220.667 118.46H218.399L211.931 111.04H201.655V118.46H199.919V101.94H213.583C214.348 101.94 215.058 102.024 215.711 102.192C216.383 102.36 216.952 102.631 217.419 103.004C217.904 103.377 218.278 103.853 218.539 104.432C218.819 105.011 218.959 105.711 218.959 106.532C218.959 107.559 218.726 108.408 218.259 109.08C217.792 109.733 217.083 110.247 216.131 110.62H216.103ZM220.527 106.532C220.527 105.468 220.359 104.553 220.023 103.788C219.687 103.004 219.211 102.36 218.595 101.856C217.979 101.352 217.242 100.979 216.383 100.736C215.543 100.493 214.61 100.372 213.583 100.372H198.407V120.028H203.195V112.58H211.203L217.643 120.028H224.083L217.027 111.936C219.36 110.909 220.527 109.108 220.527 106.532ZM197.707 120.728V99.672H213.583C214.311 99.672 215.011 99.728 215.683 99.84C216.355 99.9333 217.027 100.139 217.699 100.456C218.39 100.773 219.099 101.231 219.827 101.828C220.574 102.425 221.367 103.219 222.207 104.208C222.748 104.749 223.168 105.477 223.467 106.392C223.784 107.288 223.943 108.268 223.943 109.332C223.943 110.564 223.672 111.656 223.131 112.608C222.608 113.56 221.843 114.335 220.835 114.932C221.414 115.604 222.02 116.304 222.655 117.032C223.29 117.76 223.924 118.497 224.559 119.244C225.194 119.972 225.819 120.691 226.435 121.4C227.07 122.128 227.667 122.809 228.227 123.444H220.163L217.335 120.728L213.247 115.996H206.611V123.444H200.591L197.707 120.728Z" fill="black"/>
<path d="M74.576 73.94H76.032L85.692 88.276C87.2787 85.8493 88.8747 83.4507 90.48 81.08C92.104 78.7093 93.7374 76.3293 95.38 73.94H96.836V90.46H95.1V77.468L86.392 90.46H85.02L76.312 77.496V90.46H74.576V73.94ZM77.852 82.592L84.152 92.028H87.232L93.56 82.564V92.028H98.376V72.372H94.512L85.664 85.476L76.872 72.372H73.036V92.028H77.852V82.592ZM79.98 74.556L86.056 83.656L94.176 71.672H99.076L101.792 74.556V95.444H95.744L92.86 92.728V91.692L90.34 95.444H86.644L83.816 92.728L81.268 88.92V95.444H75.22L72.336 92.728V71.672H77.208L79.98 74.556Z" stroke="url(#paint4_linear)" stroke-width="2" mask="url(#path-5-outside-1)"/>
<path d="M126.376 84.384L120.468 76.012L114.42 84.384H126.376ZM123.352 82.872H117.416L120.412 78.672L123.352 82.872ZM130.548 90.46L127.524 86.12H113.216C112.693 86.8293 112.18 87.5573 111.676 88.304C111.19 89.032 110.686 89.7507 110.164 90.46H107.924C109.902 87.6787 111.872 84.9253 113.832 82.2C115.81 79.4747 117.78 76.7213 119.74 73.94H121.084L132.648 90.46H130.548ZM118.984 72.372L104.984 92.028H110.92L114 87.688H126.656L129.708 92.028H135.644L121.924 72.372H118.984ZM125.06 74.556L139.62 95.444H132.172L129.344 92.728L128.196 91.104H117.136C116.912 91.44 116.66 91.7947 116.38 92.168C116.118 92.5413 115.848 92.9147 115.568 93.288C115.306 93.68 115.045 94.0533 114.784 94.408C114.522 94.7813 114.28 95.1267 114.056 95.444H106.58L103.612 92.728L118.62 71.672H122.288L125.06 74.556Z" stroke="url(#paint5_linear)" stroke-width="2" mask="url(#path-5-outside-1)"/>
<path d="M166.266 90.46H163.746L155.346 83.068L147.086 90.46H144.622L154.254 82.144C152.63 80.7627 151.016 79.3907 149.41 78.028C147.824 76.6653 146.209 75.3027 144.566 73.94H147.086L155.374 81.248C156.718 80.016 158.072 78.8027 159.434 77.608C160.797 76.3947 162.16 75.172 163.522 73.94H166.014L156.466 82.144L166.266 90.46ZM162.962 72.372C161.712 73.5293 160.452 74.668 159.182 75.788C157.913 76.8893 156.644 78.0187 155.374 79.176L147.674 72.372H140.366L151.874 82.116L140.366 92.028H147.674L155.346 85.14L163.158 92.028H170.522L158.874 82.172L170.242 72.372H162.962ZM174.694 74.556L162.934 84.72L172.426 92.728L175.002 95.444H165.706L158.146 88.78C156.914 89.9 155.673 91.0107 154.422 92.112C153.172 93.232 151.93 94.3427 150.698 95.444H141.514L138.49 92.728L150.614 82.284L138.322 71.672H147.926L155.346 78.224L162.71 71.672H172.118L174.694 74.556Z" stroke="url(#paint6_linear)" stroke-width="2" mask="url(#path-5-outside-1)"/>
<path d="M87.988 105.216C88.212 105.216 88.436 105.235 88.66 105.272C88.9027 105.309 89.1174 105.375 89.304 105.468C89.5094 105.561 89.6774 105.692 89.808 105.86C89.9387 106.028 90.004 106.252 90.004 106.532C90.004 106.793 89.9294 107.008 89.78 107.176C89.6494 107.344 89.4814 107.475 89.276 107.568C89.0707 107.661 88.8467 107.727 88.604 107.764C88.3614 107.801 88.1467 107.82 87.96 107.82H77.6V105.216H87.988ZM87.96 109.36C88.408 109.36 88.8467 109.313 89.276 109.22C89.724 109.108 90.116 108.94 90.452 108.716C90.788 108.492 91.0587 108.203 91.264 107.848C91.4694 107.475 91.572 107.036 91.572 106.532C91.572 106.009 91.4694 105.571 91.264 105.216C91.0774 104.843 90.816 104.544 90.48 104.32C90.1627 104.077 89.78 103.909 89.332 103.816C88.9027 103.704 88.4547 103.648 87.988 103.648H76.032V109.36H87.96ZM76.032 118.46H74.324V101.94H87.988C88.7534 101.94 89.4627 102.033 90.116 102.22C90.7694 102.388 91.3294 102.659 91.796 103.032C92.2814 103.387 92.6547 103.863 92.916 104.46C93.196 105.039 93.336 105.729 93.336 106.532C93.336 107.559 93.0934 108.408 92.608 109.08C92.1414 109.733 91.4414 110.247 90.508 110.62V110.648C90.0787 110.797 89.4814 110.909 88.716 110.984C87.9507 111.059 87.092 111.115 86.14 111.152C85.2067 111.171 84.2267 111.18 83.2 111.18C82.1734 111.18 81.1934 111.171 80.26 111.152C79.3267 111.115 78.4867 111.087 77.74 111.068C76.9934 111.049 76.424 111.04 76.032 111.04V118.46ZM94.904 106.532C94.904 105.468 94.736 104.553 94.4 103.788C94.064 103.004 93.588 102.36 92.972 101.856C92.3747 101.352 91.6467 100.979 90.788 100.736C89.948 100.493 89.0147 100.372 87.988 100.372H72.756V120.028H77.6V112.58C78.048 112.58 78.6267 112.589 79.336 112.608C80.064 112.627 80.848 112.655 81.688 112.692C82.528 112.711 83.4054 112.72 84.32 112.72C85.2347 112.72 86.112 112.701 86.952 112.664C87.8107 112.627 88.604 112.561 89.332 112.468C90.06 112.375 90.6667 112.244 91.152 112.076V112.048C92.384 111.525 93.3174 110.816 93.952 109.92C94.5867 109.024 94.904 107.895 94.904 106.532ZM72.056 120.728V99.672H87.988C88.716 99.672 89.4254 99.728 90.116 99.84C90.8254 99.9333 91.5347 100.148 92.244 100.484C92.972 100.801 93.7187 101.259 94.484 101.856C95.2494 102.453 96.052 103.247 96.892 104.236C97.4334 104.777 97.8067 105.496 98.012 106.392C98.2174 107.288 98.32 108.268 98.32 109.332C98.32 110.844 97.9654 112.095 97.256 113.084C96.5654 114.073 95.5387 114.867 94.176 115.464C93.8027 115.595 93.3547 115.707 92.832 115.8C92.328 115.875 91.768 115.94 91.152 115.996C90.536 116.052 89.8827 116.089 89.192 116.108C88.52 116.127 87.8387 116.136 87.148 116.136C86.14 116.136 85.1414 116.136 84.152 116.136C83.1627 116.136 82.1174 116.127 81.016 116.108V123.444H74.94L72.056 120.728Z" stroke="url(#paint7_linear)" stroke-width="2" mask="url(#path-5-outside-1)"/>
<path d="M114.687 116.752C115.77 116.752 116.778 116.64 117.711 116.416C118.663 116.173 119.484 115.8 120.175 115.296C120.884 114.773 121.435 114.101 121.827 113.28C122.219 112.44 122.415 111.413 122.415 110.2C122.415 109.005 122.21 107.988 121.799 107.148C121.407 106.308 120.866 105.636 120.175 105.132C119.484 104.609 118.663 104.236 117.711 104.012C116.778 103.769 115.77 103.648 114.687 103.648H111.607C110.506 103.648 109.479 103.769 108.527 104.012C107.594 104.236 106.782 104.609 106.091 105.132C105.4 105.636 104.85 106.308 104.439 107.148C104.047 107.988 103.851 109.005 103.851 110.2C103.851 111.413 104.047 112.44 104.439 113.28C104.85 114.101 105.4 114.773 106.091 115.296C106.782 115.819 107.594 116.192 108.527 116.416C109.479 116.64 110.506 116.752 111.607 116.752H114.687ZM111.607 115.184C110.767 115.184 109.974 115.1 109.227 114.932C108.48 114.764 107.827 114.493 107.267 114.12C106.707 113.728 106.259 113.215 105.923 112.58C105.587 111.945 105.419 111.152 105.419 110.2C105.419 109.267 105.587 108.483 105.923 107.848C106.259 107.213 106.707 106.7 107.267 106.308C107.846 105.916 108.508 105.636 109.255 105.468C110.002 105.3 110.786 105.216 111.607 105.216H114.687C115.508 105.216 116.292 105.3 117.039 105.468C117.786 105.636 118.439 105.916 118.999 106.308C119.559 106.7 120.007 107.213 120.343 107.848C120.679 108.483 120.847 109.267 120.847 110.2C120.847 111.133 120.679 111.917 120.343 112.552C120.026 113.187 119.587 113.7 119.027 114.092C118.467 114.484 117.814 114.764 117.067 114.932C116.32 115.1 115.527 115.184 114.687 115.184H111.607ZM102.087 110.2C102.087 108.688 102.32 107.409 102.787 106.364C103.272 105.319 103.935 104.469 104.775 103.816C105.634 103.144 106.642 102.668 107.799 102.388C108.975 102.089 110.244 101.94 111.607 101.94H114.687C116.05 101.94 117.31 102.089 118.467 102.388C119.624 102.687 120.623 103.163 121.463 103.816C122.322 104.469 122.984 105.319 123.451 106.364C123.936 107.409 124.179 108.688 124.179 110.2C124.179 111.712 123.936 112.991 123.451 114.036C122.984 115.081 122.322 115.931 121.463 116.584C120.623 117.237 119.624 117.713 118.467 118.012C117.31 118.311 116.05 118.46 114.687 118.46H111.607C110.244 118.46 108.975 118.32 107.799 118.04C106.642 117.741 105.634 117.265 104.775 116.612C103.935 115.94 103.272 115.081 102.787 114.036C102.32 112.991 102.087 111.712 102.087 110.2ZM100.519 110.2C100.519 111.973 100.79 113.485 101.331 114.736C101.891 115.968 102.656 116.976 103.627 117.76C104.616 118.544 105.783 119.123 107.127 119.496C108.49 119.851 109.983 120.028 111.607 120.028H114.687C116.311 120.028 117.795 119.851 119.139 119.496C120.483 119.123 121.64 118.544 122.611 117.76C123.6 116.976 124.366 115.968 124.907 114.736C125.448 113.485 125.719 111.973 125.719 110.2C125.719 108.427 125.448 106.924 124.907 105.692C124.366 104.441 123.6 103.424 122.611 102.64C121.64 101.856 120.483 101.287 119.139 100.932C117.795 100.559 116.311 100.372 114.687 100.372H111.607C109.983 100.372 108.49 100.559 107.127 100.932C105.783 101.287 104.616 101.856 103.627 102.64C102.656 103.424 101.891 104.441 101.331 105.692C100.79 106.924 100.519 108.427 100.519 110.2ZM99.8191 110.2C99.8191 108.296 100.108 106.681 100.687 105.356C101.266 104.012 102.078 102.92 103.123 102.08C104.168 101.24 105.41 100.633 106.847 100.26C108.303 99.868 109.89 99.672 111.607 99.672H114.687C115.77 99.672 116.787 99.7373 117.739 99.868C118.71 99.98 119.662 100.232 120.595 100.624C121.528 100.997 122.452 101.539 123.367 102.248C124.3 102.939 125.262 103.872 126.251 105.048C127.091 105.888 127.782 106.999 128.323 108.38C128.864 109.761 129.135 111.301 129.135 113C129.135 114.885 128.846 116.491 128.267 117.816C127.707 119.141 126.904 120.215 125.859 121.036C124.832 121.876 123.6 122.483 122.163 122.856C120.744 123.248 119.186 123.444 117.487 123.444H114.407C112.503 123.444 110.73 123.229 109.087 122.8C107.444 122.371 106.091 121.633 105.027 120.588C103.963 119.655 103.095 118.777 102.423 117.956C101.751 117.116 101.219 116.285 100.827 115.464C100.454 114.643 100.192 113.803 100.043 112.944C99.8938 112.085 99.8191 111.171 99.8191 110.2ZM114.687 114.484C115.415 114.484 116.106 114.419 116.759 114.288C117.431 114.139 118.019 113.896 118.523 113.56C119.027 113.224 119.419 112.785 119.699 112.244C119.998 111.684 120.147 111.003 120.147 110.2C120.147 109.752 120.091 109.341 119.979 108.968C119.214 108.744 118.383 108.632 117.487 108.632H114.407C113.66 108.632 112.951 108.707 112.279 108.856C111.607 109.005 111.01 109.248 110.487 109.584C109.983 109.92 109.582 110.368 109.283 110.928C108.984 111.488 108.835 112.179 108.835 113C108.835 113.448 108.872 113.821 108.947 114.12C109.339 114.251 109.759 114.344 110.207 114.4C110.655 114.456 111.122 114.484 111.607 114.484H114.687Z" stroke="url(#paint8_linear)" stroke-width="2" mask="url(#path-5-outside-1)"/>
<path d="M138.281 115.604C139.215 113.289 140.176 111.012 141.165 108.772C142.155 106.513 143.125 104.236 144.077 101.94H145.449L151.245 115.576C152.197 113.299 153.149 111.031 154.101 108.772C155.053 106.513 155.996 104.236 156.929 101.94H158.889C157.751 104.721 156.612 107.475 155.473 110.2C154.335 112.925 153.196 115.679 152.057 118.46H150.629L144.777 104.796L138.869 118.46H137.497C136.377 115.679 135.248 112.925 134.109 110.2C132.971 107.456 131.823 104.703 130.665 101.94H132.625L138.281 115.604ZM136.489 120.028H139.961C140.745 118.124 141.529 116.248 142.313 114.4C143.116 112.533 143.928 110.657 144.749 108.772L149.565 120.028H153.065L161.185 100.372H155.893C155.128 102.239 154.353 104.096 153.569 105.944C152.804 107.773 152.029 109.621 151.245 111.488L146.485 100.372H143.069L138.281 111.544L133.633 100.372H128.369L136.489 120.028ZM134.081 99.672L136.825 102.556L139.037 107.932C139.635 106.551 140.232 105.179 140.829 103.816C141.427 102.453 142.024 101.072 142.621 99.672H146.961L149.705 102.556L151.973 107.932L152.309 107.148C152.421 106.887 152.543 106.607 152.673 106.308C152.823 105.991 152.944 105.701 153.037 105.44C153.448 104.488 153.859 103.517 154.269 102.528C154.68 101.52 155.072 100.568 155.445 99.672H162.221L164.881 102.556L156.257 123.444H151.945L149.089 120.728L146.681 115.128C146.084 116.528 145.487 117.928 144.889 119.328C144.292 120.709 143.713 122.081 143.153 123.444H138.897L136.041 120.728L127.333 99.672H134.081Z" stroke="url(#paint9_linear)" stroke-width="2" mask="url(#path-5-outside-1)"/>
<path d="M171.462 109.36H185.714V111.04H171.462V116.752H188.626V118.46H169.726V101.94H188.598V103.648H171.462V109.36ZM173.002 105.216H190.166V100.372H168.158V120.028H190.194V115.184H173.002V112.58H187.254V107.82H173.002V105.216ZM167.458 120.728V99.672H190.866L193.582 102.556V108.632H189.298L190.67 110.004V114.484L193.61 117.368V123.444H170.342L167.458 120.728Z" stroke="url(#paint10_linear)" stroke-width="2" mask="url(#path-5-outside-1)"/>
<path d="M213.583 105.216C213.807 105.216 214.04 105.235 214.283 105.272C214.526 105.309 214.75 105.375 214.955 105.468C215.16 105.561 215.328 105.692 215.459 105.86C215.608 106.028 215.683 106.252 215.683 106.532C215.683 106.793 215.608 107.008 215.459 107.176C215.31 107.344 215.123 107.475 214.899 107.568C214.694 107.661 214.46 107.727 214.199 107.764C213.956 107.801 213.742 107.82 213.555 107.82H203.195V105.216H213.583ZM213.555 109.36C214.003 109.36 214.442 109.313 214.871 109.22C215.319 109.108 215.72 108.94 216.075 108.716C216.43 108.492 216.71 108.203 216.915 107.848C217.139 107.475 217.251 107.036 217.251 106.532C217.251 106.009 217.148 105.561 216.943 105.188C216.738 104.815 216.458 104.516 216.103 104.292C215.767 104.068 215.375 103.909 214.927 103.816C214.498 103.704 214.05 103.648 213.583 103.648H201.655V109.36H213.555ZM216.103 110.62C215.842 110.769 215.552 110.881 215.235 110.956C214.918 111.031 214.619 111.105 214.339 111.18C215.384 112.412 216.43 113.625 217.475 114.82C218.539 116.015 219.603 117.228 220.667 118.46H218.399L211.931 111.04H201.655V118.46H199.919V101.94H213.583C214.348 101.94 215.058 102.024 215.711 102.192C216.383 102.36 216.952 102.631 217.419 103.004C217.904 103.377 218.278 103.853 218.539 104.432C218.819 105.011 218.959 105.711 218.959 106.532C218.959 107.559 218.726 108.408 218.259 109.08C217.792 109.733 217.083 110.247 216.131 110.62H216.103ZM220.527 106.532C220.527 105.468 220.359 104.553 220.023 103.788C219.687 103.004 219.211 102.36 218.595 101.856C217.979 101.352 217.242 100.979 216.383 100.736C215.543 100.493 214.61 100.372 213.583 100.372H198.407V120.028H203.195V112.58H211.203L217.643 120.028H224.083L217.027 111.936C219.36 110.909 220.527 109.108 220.527 106.532ZM197.707 120.728V99.672H213.583C214.311 99.672 215.011 99.728 215.683 99.84C216.355 99.9333 217.027 100.139 217.699 100.456C218.39 100.773 219.099 101.231 219.827 101.828C220.574 102.425 221.367 103.219 222.207 104.208C222.748 104.749 223.168 105.477 223.467 106.392C223.784 107.288 223.943 108.268 223.943 109.332C223.943 110.564 223.672 111.656 223.131 112.608C222.608 113.56 221.843 114.335 220.835 114.932C221.414 115.604 222.02 116.304 222.655 117.032C223.29 117.76 223.924 118.497 224.559 119.244C225.194 119.972 225.819 120.691 226.435 121.4C227.07 122.128 227.667 122.809 228.227 123.444H220.163L217.335 120.728L213.247 115.996H206.611V123.444H200.591L197.707 120.728Z" stroke="url(#paint11_linear)" stroke-width="2" mask="url(#path-5-outside-1)"/>
<defs>
<linearGradient id="paint0_linear" x1="36.4108" y1="4.16313" x2="36.9326" y2="213.597" gradientUnits="userSpaceOnUse">
<stop stop-color="#00ECFB"/>
<stop offset="1" stop-color="#910FF8"/>
</linearGradient>
<linearGradient id="paint1_linear" x1="43.7028" y1="20.6034" x2="44.1316" y2="199.132" gradientUnits="userSpaceOnUse">
<stop stop-color="#00ECFB"/>
<stop offset="1" stop-color="#910FF8"/>
</linearGradient>
<linearGradient id="paint2_linear" x1="58.5" y1="21.5" x2="59" y2="207" gradientUnits="userSpaceOnUse">
<stop stop-color="#00ECFB"/>
<stop offset="1" stop-color="#910FF8"/>
</linearGradient>
<linearGradient id="paint3_linear" x1="43.0931" y1="34.3766" x2="43.3389" y2="180.019" gradientUnits="userSpaceOnUse">
<stop stop-color="#00ECFB"/>
<stop offset="1" stop-color="#910FF8"/>
</linearGradient>
<linearGradient id="paint4_linear" x1="100.994" y1="72.0092" x2="101.052" y2="134.41" gradientUnits="userSpaceOnUse">
<stop stop-color="#00ECFB"/>
<stop offset="1" stop-color="#910FF8"/>
</linearGradient>
<linearGradient id="paint5_linear" x1="100.994" y1="72.0092" x2="101.052" y2="134.41" gradientUnits="userSpaceOnUse">
<stop stop-color="#00ECFB"/>
<stop offset="1" stop-color="#910FF8"/>
</linearGradient>
<linearGradient id="paint6_linear" x1="100.994" y1="72.0092" x2="101.052" y2="134.41" gradientUnits="userSpaceOnUse">
<stop stop-color="#00ECFB"/>
<stop offset="1" stop-color="#910FF8"/>
</linearGradient>
<linearGradient id="paint7_linear" x1="100.994" y1="72.0092" x2="101.052" y2="134.41" gradientUnits="userSpaceOnUse">
<stop stop-color="#00ECFB"/>
<stop offset="1" stop-color="#910FF8"/>
</linearGradient>
<linearGradient id="paint8_linear" x1="100.994" y1="72.0092" x2="101.052" y2="134.41" gradientUnits="userSpaceOnUse">
<stop stop-color="#00ECFB"/>
<stop offset="1" stop-color="#910FF8"/>
</linearGradient>
<linearGradient id="paint9_linear" x1="100.994" y1="72.0092" x2="101.052" y2="134.41" gradientUnits="userSpaceOnUse">
<stop stop-color="#00ECFB"/>
<stop offset="1" stop-color="#910FF8"/>
</linearGradient>
<linearGradient id="paint10_linear" x1="100.994" y1="72.0092" x2="101.052" y2="134.41" gradientUnits="userSpaceOnUse">
<stop stop-color="#00ECFB"/>
<stop offset="1" stop-color="#910FF8"/>
</linearGradient>
<linearGradient id="paint11_linear" x1="100.994" y1="72.0092" x2="101.052" y2="134.41" gradientUnits="userSpaceOnUse">
<stop stop-color="#00ECFB"/>
<stop offset="1" stop-color="#910FF8"/>
</linearGradient>
</defs>
</svg>
