<svg width="708" height="708" viewBox="0 0 708 708" fill="none" xmlns="http://www.w3.org/2000/svg">
<path d="M704 354C704 547.3 547.3 704 354 704C160.7 704 4 547.3 4 354C4 160.7 160.7 4 354 4C547.3 4 704 160.7 704 354Z" stroke="url(#paint0_linear)" stroke-width="8"/>
<path d="M439.496 381.539L457.074 348.336V529H439.496V381.539ZM474.652 314.156L492.23 280.953V529H474.652V314.156ZM509.809 247.75L527.387 214.303V529H509.809V247.75ZM391.889 373.238L381.879 354.928L502.973 124.703H522.748L391.889 373.238ZM371.625 334.908L361.371 316.354L462.934 124.703H482.953L371.625 334.908ZM253.949 350.289L271.527 383.492V529H253.949V350.289ZM218.793 283.395L236.371 316.598V529H218.793V283.395ZM183.637 216.5L201.215 249.947V529H183.637V216.5ZM325.727 423.531H305.951L166.059 158.15V529H148.48V124.703H168.256L325.727 423.531ZM365.521 423.531H345.502L188.275 124.703H208.295L365.521 423.531ZM544.965 158.15L405.072 423.531H385.053L228.07 124.703H247.846L395.307 404.977L542.523 124.703H562.543V529H544.965V158.15Z" stroke="url(#paint1_linear)" stroke-width="8"/>
<defs>
<linearGradient id="paint0_linear" x1="168" y1="529" x2="612" y2="205.5" gradientUnits="userSpaceOnUse">
<stop offset="0.172793" stop-color="#DF5EFF"/>
<stop offset="0.584054" stop-color="#11F1FF"/>
<stop offset="0.944093" stop-color="#0047FF"/>
</linearGradient>
<linearGradient id="paint1_linear" x1="168" y1="529" x2="612" y2="205.5" gradientUnits="userSpaceOnUse">
<stop offset="0.172793" stop-color="#DF5EFF"/>
<stop offset="0.584054" stop-color="#11F1FF"/>
<stop offset="0.944093" stop-color="#0047FF"/>
</linearGradient>
</defs>
</svg>
